<?xml version="1.0" standalone="no"?><!DOCTYPE svg PUBLIC "-//W3C//DTD SVG 1.1//EN" "http://www.w3.org/Graphics/SVG/1.1/DTD/svg11.dtd"><svg t="1592504505606" class="icon" viewBox="0 0 1024 1024" version="1.1" xmlns="http://www.w3.org/2000/svg" p-id="2132" xmlns:xlink="http://www.w3.org/1999/xlink" width="20" height="20"><defs><style type="text/css"></style></defs><path d="M5.0341357 724.8645689l0-339.73134223c0-55.67161837 40.32891259-80.65782518 75.83607467-103.01531022 2.19181511-1.31436089 4.38363022-3.0680557 6.57544532-4.82175052 3.06926933-2.19181511 5.69920475-3.9442963 7.89101986-5.69799111L331.17525333 112.9100326c49.97362725-33.75346725 118.358016-20.60257659 152.11148326 29.80917096 12.27465008 17.97385482 18.41076148 39.0145517 18.41076149 60.93270282 0 25.42554075-8.76604682 49.97241363-24.5468729 69.26184295L899.29348741 272.91374933c60.4933689 0 109.59075556 46.9031443 109.59075556 104.32967112 0 57.42531318-49.09738667 104.3296711-109.59075556 104.32967111l-150.35900208 0c8.32914015 13.58901097 13.15089067 28.93293037 13.15089067 45.15187674 0 31.99977245-17.53452087 60.49336889-45.58999703 78.02788978 14.02834489 16.6582803 22.35748503 36.82152297 22.35748503 57.86343348 0 38.13831111-26.30178133 72.32989867-64.44009245 87.23448414 5.69920475 11.83531615 8.76726045 24.54808652 8.76726045 37.6989772 0 53.04168297-49.09617303 96.00174459-109.59075555 96.00174458l-330.96286814 0c-120.11171082 0.4381203-237.59227259-90.74066015-237.59227261-158.68692858M458.73865008 203.21257245c0-13.15089067-3.9442963-25.86244741-10.95907556-36.3846163-20.16445631-30.24607763-60.93148918-38.13588385-91.17999407-17.97142754L120.7622163 307.54345719c-2.19181511 1.31436089-4.38363022 3.0680557-7.01477927 4.82175051-2.62993541 1.75369482-5.25987082 3.50738963-7.45168592 5.25987083l-0.87624059 0.43933392c-38.57643141 24.10996622-55.672832 37.69897718-55.672832 66.19136l-1e-8 339.73134222c0 37.26085689 91.61811437 115.2899603 193.31906371 115.2899603L574.02861037 839.27707498c35.50716207 0 65.75445333-24.10996621 65.75445333-52.16544237 0-12.71277037-6.13732503-24.98620682-17.09640059-35.06904179l-39.0145517-34.63092149 51.72732207-3.9442963c33.31413333-2.63114903 59.61712829-25.42554075 59.6171283-52.16544236 0-17.53452089-11.83652977-34.63092148-31.12353186-44.27442252l-56.54907259-28.05547615 61.80894342-13.15089067c28.49359645-6.13732505 49.53429333-27.17802192 49.53429333-50.41174755 0-19.2882157-14.46646517-37.69897718-36.82152297-46.90435792l-105.20712533-42.08382104L899.29348741 436.42121482c36.3846163 0 65.75445333-27.17802192 65.75445334-60.49336889s-29.36983703-60.49458252-65.75445334-60.49458253l-555.843584 1e-8 86.35702992-57.42531318c17.97385482-12.27343645 28.93293037-32.43789275 28.93293037-54.79537778" p-id="2133" fill="#13227a"></path><path d="M728.33190875 437.73800297l0 43.83508859-152.9889375 0 0-43.83630223z m-26.30178134 141.15119406l0 43.83630223L549.0399763 622.72549925l0-43.8363022z m-42.08260741 136.7687775l0 43.83630222-152.98893748 0 0-43.83630222z" p-id="2134" fill="#13227a"></path></svg>