<?xml version="1.0" standalone="no"?><!DOCTYPE svg PUBLIC "-//W3C//DTD SVG 1.1//EN" "http://www.w3.org/Graphics/SVG/1.1/DTD/svg11.dtd"><svg t="1592509454682" class="icon" viewBox="0 0 1024 1024" version="1.1" xmlns="http://www.w3.org/2000/svg" p-id="2134" xmlns:xlink="http://www.w3.org/1999/xlink" width="20" height="20"><defs><style type="text/css"></style></defs><path d="M324.096 790.016c-71.168-107.52-88.576-166.912-79.872-247.808 12.288-73.216 42.496-84.992 66.56-86.528 7.68-0.512 14.848-4.096 18.944-10.752 17.408-26.624 28.16-33.792 48.128-33.792 14.336 0 27.136 3.584 34.304 6.144 1.024 0.512 2.048 0.512 3.072 0.512 3.072 0 5.632-1.536 7.168-4.096 17.92-30.72 35.328-38.4 56.832-38.4 12.288 0 24.576 2.56 32.256 5.12 1.024 0 3.584 0.512 4.608 0.512 4.096 0 11.776-3.584 11.776-7.68V181.248c0-35.84 26.624-54.272 53.248-54.272 27.136 0 53.248 17.92 53.248 54.272v311.808c0 16.384 9.728 26.112 23.04 26.112 8.192 0 13.312-3.584 18.432-12.288l26.112-40.448c11.264-18.944 28.16-27.136 44.544-27.136 37.376 0 73.728 39.424 47.616 81.92l-204.288 389.12c-1.536 2.56-4.096 1.024-6.656 1.024H339.456c-4.096 0-7.68 0-7.68-4.096L324.608 793.6c0.512-1.024 0-2.048-0.512-3.584z" p-id="2135"></path></svg>