<svg xmlns="http://www.w3.org/2000/svg" class="leaflet-zoom-animated" width="1978" height="940" viewBox="-115 17 1978 940" style="transform: translate3d(-115px, 17px, 0px);"><g><path stroke-linejoin="round" stroke-linecap="round" fill-rule="evenodd" stroke="#333" stroke-opacity="1" stroke-width="1" fill="transparent" fill-opacity="0.2" class="leaflet-clickable" d="M1087 517L1097 527L1106 531L1108 533L1108 539L1113 542L1119 540L1121 534L1125 533L1127 528L1134 527L1137 531L1131 542L1130 551L1124 552L1123 557L1125 562L1130 563L1130 567L1134 565L1138 565L1140 567L1133 574L1121 577L1122 575L1106 569L1098 578L1098 581L1101 583L1103 588L1107 587L1111 592L1115 590L1122 591L1125 597L1124 599L1113 602L1109 600L1103 602L1091 599L1088 596L1078 596L1072 600L1069 600L1071 606L1068 609L1060 602L1050 608L1037 612L1036 619L1034 622L1032 622L1030 615L1018 612L1019 604L1017 603L1014 608L999 613L1001 628L1009 633L1014 631L1022 632L1024 630L1024 625L1030 624L1031 636L1035 639L1047 641L1049 640L1049 647L1047 653L1042 657L1039 663L1035 661L1033 663L1036 664L1032 671L1034 671L1032 674L1030 674L1030 676L1028 675L1028 678L1024 680L1020 685L1013 686L1007 679L1002 683L1001 692L1004 702L1006 702L1008 698L1012 699L1013 697L1014 700L1011 718L1009 721L1005 721L1002 724L1003 729L996 731L991 737L989 737L987 742L975 748L972 748L967 746L970 743L969 736L962 731L963 727L967 724L952 708L938 705L925 705L919 710L910 714L910 720L906 721L904 718L900 721L893 721L890 715L888 714L888 709L884 712L883 709L886 706L886 704L888 704L890 699L888 694L891 691L892 685L880 673L886 661L884 658L881 658L879 651L884 651L887 646L886 643L889 643L889 641L887 638L885 641L882 639L882 631L877 629L873 620L867 618L862 619L860 621L857 619L856 620L855 618L853 618L852 621L848 620L845 615L846 610L842 609L841 607L835 604L834 602L837 598L834 594L829 594L827 592L811 594L806 598L805 601L795 605L792 609L789 600L787 600L785 604L778 596L778 592L770 589L768 594L762 591L760 592L769 599L768 601L762 600L760 604L763 607L755 610L754 612L748 603L744 602L740 604L736 599L732 600L732 603L730 603L724 598L725 596L721 592L717 601L710 601L703 598L700 599L698 601L700 604L698 606L699 607L695 611L692 610L690 604L687 608L683 610L680 608L681 607L679 602L677 603L668 598L665 598L656 607L648 611L639 609L631 604L627 604L624 600L623 591L627 589L630 581L622 580L620 578L619 571L624 565L638 558L639 551L644 550L649 555L652 554L654 549L659 549L661 544L669 539L669 536L664 533L666 530L663 520L662 519L658 523L654 519L646 515L644 511L644 500L635 496L633 497L629 493L628 495L625 491L626 486L611 480L608 474L602 474L602 465L605 462L607 462L607 460L609 460L610 457L619 462L623 461L626 451L619 446L620 436L618 433L620 430L625 430L626 428L636 423L640 415L648 410L646 407L649 406L651 402L651 393L648 391L654 380L651 373L652 369L656 366L656 362L661 357L660 350L662 343L667 343L666 345L670 347L675 346L678 351L679 349L688 358L690 357L687 352L686 346L692 346L696 342L698 342L701 345L707 354L710 354L714 351L725 350L731 348L732 346L734 347L739 345L742 339L748 337L750 337L757 343L758 342L756 340L756 337L773 323L778 312L778 298L774 297L771 300L765 302L761 301L760 303L758 298L752 291L748 292L746 289L747 287L741 287L745 279L749 280L749 278L752 276L757 276L759 274L764 274L766 272L769 259L768 258L764 262L762 258L763 256L759 255L755 247L755 244L757 245L759 240L766 240L768 231L766 229L768 222L773 215L774 219L776 216L776 214L772 210L770 210L769 205L776 202L776 204L779 206L782 204L786 209L793 202L795 202L794 198L791 196L792 194L796 194L802 191L803 192L806 189L817 188L820 184L829 188L829 194L835 194L840 188L842 188L848 194L855 188L861 188L863 186L860 181L864 175L866 175L870 179L874 175L876 176L879 182L884 182L886 181L889 173L891 173L894 174L895 176L899 190L906 187L913 192L911 196L914 197L917 205L912 210L909 209L906 218L903 222L904 225L906 224L908 228L913 230L916 242L919 245L920 256L926 261L929 260L934 264L938 265L943 273L949 278L954 285L960 284L962 286L957 291L963 294L964 296L962 302L950 317L949 324L942 329L942 332L934 340L934 344L932 346L933 351L936 353L933 356L938 357L937 362L931 369L932 375L935 380L940 380L941 388L945 389L943 395L946 395L956 406L954 410L955 417L951 421L951 425L953 425L956 419L959 421L957 426L958 433L962 435L971 435L971 432L974 431L974 429L981 429L988 433L990 433L994 429L1005 430L1005 438L999 441L1001 445L1003 447L1005 444L1011 441L1017 446L1014 449L1014 456L1012 458L1012 465L1015 465L1012 469L1008 471L1010 473L1010 478L1013 481L1015 481L1016 488L1022 486L1025 482L1028 483L1033 476L1040 474L1041 472L1047 472L1046 468L1048 464L1055 462L1065 463L1068 462L1070 459L1073 461L1072 463L1078 461L1080 459L1080 455L1085 453L1095 453L1098 455L1098 457L1106 460L1106 466L1110 468L1115 466L1117 467L1118 470L1122 473L1122 484L1115 489L1110 490L1110 497L1111 499L1119 503L1105 511L1101 510L1095 513L1088 513L1087 515z"/></g><g><path stroke-linejoin="round" stroke-linecap="round" fill-rule="evenodd" stroke="#333" stroke-opacity="1" stroke-width="1" fill="transparent" fill-opacity="0.2" class="leaflet-clickable" d="M914 745L914 740L916 742L919 741L923 748L929 749L928 751L932 759L936 759L934 767L938 774L937 776L935 775L935 780L931 783L930 786L924 789L920 789L919 787L923 786L921 783L917 783L911 780L899 780L890 787L885 797L883 798L873 794L866 787L867 785L869 785L869 782L877 781L877 777L873 767L871 766L871 762L878 756L880 756L892 765L903 767L906 763L906 761L903 759L909 756L907 748L910 747z"/></g><g><path stroke-linejoin="round" stroke-linecap="round" fill-rule="evenodd" stroke="#333" stroke-opacity="1" stroke-width="1" fill="transparent" fill-opacity="0.2" class="leaflet-clickable" d="M847 790L842 788L844 786L844 782L845 780L847 780L850 772L857 770L861 774L863 774L861 784L858 783L855 785L855 787L852 787L848 790z"/></g><g><path stroke-linejoin="round" stroke-linecap="round" fill-rule="evenodd" stroke="#333" stroke-opacity="1" stroke-width="1" fill="transparent" fill-opacity="0.2" class="leaflet-clickable" d="M824 793L825 796L828 796L828 798L826 798L823 795z"/></g><g><path stroke-linejoin="round" stroke-linecap="round" fill-rule="evenodd" stroke="#333" stroke-opacity="1" stroke-width="1" fill="transparent" fill-opacity="0.2" class="leaflet-clickable" d="M822 799L825 800L823 801L821 799z"/></g><g><path stroke-linejoin="round" stroke-linecap="round" fill-rule="evenodd" stroke="#333" stroke-opacity="1" stroke-width="1" fill="transparent" fill-opacity="0.2" class="leaflet-clickable" d="M1129 477L1126 482L1125 479L1127 479L1127 477L1130 475L1129 476z"/></g><g><path stroke-linejoin="round" stroke-linecap="round" fill-rule="evenodd" stroke="#333" stroke-opacity="1" stroke-width="1" fill="transparent" fill-opacity="0.2" class="leaflet-clickable" d="M1142 565L1141 566L1142 564z"/></g><g><path stroke-linejoin="round" stroke-linecap="round" fill-rule="evenodd" stroke="#333" stroke-opacity="1" stroke-width="1" fill="transparent" fill-opacity="0.2" class="leaflet-clickable" d="M1138 538L1137 535L1139 535L1141 538L1138 539z"/></g><g><path stroke-linejoin="round" stroke-linecap="round" fill-rule="evenodd" stroke="#333" stroke-opacity="1" stroke-width="1" fill="transparent" fill-opacity="0.2" class="leaflet-clickable" d="M1108 531L1107 530L1109 530L1109 532z"/></g><g><path stroke-linejoin="round" stroke-linecap="round" fill-rule="evenodd" stroke="#333" stroke-opacity="1" stroke-width="1" fill="transparent" fill-opacity="0.2" class="leaflet-clickable" d="M931 787L932 787z"/></g><g><path stroke-linejoin="round" stroke-linecap="round" fill-rule="evenodd" stroke="#333" stroke-opacity="1" stroke-width="1" fill="transparent" fill-opacity="0.2" class="leaflet-clickable" d="M1113 590L1112 589L1114 590z"/></g><g><path stroke-linejoin="round" stroke-linecap="round" fill-rule="evenodd" stroke="#333" stroke-opacity="1" stroke-width="1" fill="transparent" fill-opacity="0.2" class="leaflet-clickable" d="M930 726L931 726z"/></g><g><path stroke-linejoin="round" stroke-linecap="round" fill-rule="evenodd" stroke="#333" stroke-opacity="1" stroke-width="1" fill="transparent" fill-opacity="0.2" class="leaflet-clickable" d="M1044 619L1043 618L1045 616L1047 618L1046 619z"/></g><g><path stroke-linejoin="round" stroke-linecap="round" fill-rule="evenodd" stroke="#333" stroke-opacity="1" stroke-width="1" fill="transparent" fill-opacity="0.2" class="leaflet-clickable" d="M835 794L836 794z"/></g><g><path stroke-linejoin="round" stroke-linecap="round" fill-rule="evenodd" stroke="#333" stroke-opacity="1" stroke-width="1" fill="transparent" fill-opacity="0.2" class="leaflet-clickable" d="M1121 470L1121 472z"/></g><g><path stroke-linejoin="round" stroke-linecap="round" fill-rule="evenodd" stroke="#333" stroke-opacity="1" stroke-width="1" fill="transparent" fill-opacity="0.2" class="leaflet-clickable" d="M1051 610L1052 609z"/></g><g><path stroke-linejoin="round" stroke-linecap="round" fill-rule="evenodd" stroke="#333" stroke-opacity="1" stroke-width="1" fill="transparent" fill-opacity="0.2" class="leaflet-clickable" d="M1108 464L1108 465z"/></g><g><path stroke-linejoin="round" stroke-linecap="round" fill-rule="evenodd" stroke="#333" stroke-opacity="1" stroke-width="1" fill="transparent" fill-opacity="0.2" class="leaflet-clickable" d="M1020 684L1022 684L1021 685z"/></g><g><path stroke-linejoin="round" stroke-linecap="round" fill-rule="evenodd" stroke="#333" stroke-opacity="1" stroke-width="1" fill="transparent" fill-opacity="0.2" class="leaflet-clickable" d="M1143 521L1142 520L1145 517L1145 520L1143 521z"/></g><g><path stroke-linejoin="round" stroke-linecap="round" fill-rule="evenodd" stroke="#333" stroke-opacity="1" stroke-width="1" fill="transparent" fill-opacity="0.2" class="leaflet-clickable" d="M819 801L818 801z"/></g><g><path stroke-linejoin="round" stroke-linecap="round" fill-rule="evenodd" stroke="#333" stroke-opacity="1" stroke-width="1" fill="transparent" fill-opacity="0.2" class="leaflet-clickable" d="M923 743L925 742L924 743z"/></g><g><path stroke-linejoin="round" stroke-linecap="round" fill-rule="evenodd" stroke="#333" stroke-opacity="1" stroke-width="1" fill="transparent" fill-opacity="0.2" class="leaflet-clickable" d="M1004 698L1003 698z"/></g><g><path stroke-linejoin="round" stroke-linecap="round" fill-rule="evenodd" stroke="#333" stroke-opacity="1" stroke-width="1" fill="transparent" fill-opacity="0.2" class="leaflet-clickable" d="M835 780L836 781z"/></g><g><path stroke-linejoin="round" stroke-linecap="round" fill-rule="evenodd" stroke="#333" stroke-opacity="1" stroke-width="1" fill="transparent" fill-opacity="0.2" class="leaflet-clickable" d="M1069 614L1069 615z"/></g><g><path stroke-linejoin="round" stroke-linecap="round" fill-rule="evenodd" stroke="#333" stroke-opacity="1" stroke-width="1" fill="transparent" fill-opacity="0.2" class="leaflet-clickable" d="M1066 608L1065 608z"/></g><g><path stroke-linejoin="round" stroke-linecap="round" fill-rule="evenodd" stroke="#333" stroke-opacity="1" stroke-width="1" fill="transparent" fill-opacity="0.2" class="leaflet-clickable" d="M1067 617L1066 617z"/></g><g><path stroke-linejoin="round" stroke-linecap="round" fill-rule="evenodd" stroke="#333" stroke-opacity="1" stroke-width="1" fill="transparent" fill-opacity="0.2" class="leaflet-clickable" d="M848 791L849 791z"/></g><g><path stroke-linejoin="round" stroke-linecap="round" fill-rule="evenodd" stroke="#333" stroke-opacity="1" stroke-width="1" fill="transparent" fill-opacity="0.2" class="leaflet-clickable" d="M1123 473L1122 476L1122 474z"/></g><g><path stroke-linejoin="round" stroke-linecap="round" fill-rule="evenodd" stroke="#333" stroke-opacity="1" stroke-width="1" fill="transparent" fill-opacity="0.2" class="leaflet-clickable" d="M1045 619L1047 619L1045 620z"/></g><g><path stroke-linejoin="round" stroke-linecap="round" fill-rule="evenodd" stroke="#333" stroke-opacity="1" stroke-width="1" fill="transparent" fill-opacity="0.2" class="leaflet-clickable" d="M1115 510L1114 510z"/></g><g><path stroke-linejoin="round" stroke-linecap="round" fill-rule="evenodd" stroke="#333" stroke-opacity="1" stroke-width="1" fill="transparent" fill-opacity="0.2" class="leaflet-clickable" d="M1134 539L1135 539z"/></g><g><path stroke-linejoin="round" stroke-linecap="round" fill-rule="evenodd" stroke="#333" stroke-opacity="1" stroke-width="1" fill="transparent" fill-opacity="0.2" class="leaflet-clickable" d="M1018 621L1019 621z"/></g><g><path stroke-linejoin="round" stroke-linecap="round" fill-rule="evenodd" stroke="#333" stroke-opacity="1" stroke-width="1" fill="transparent" fill-opacity="0.2" class="leaflet-clickable" d="M1136 519L1137 519z"/></g><g><path stroke-linejoin="round" stroke-linecap="round" fill-rule="evenodd" stroke="#333" stroke-opacity="1" stroke-width="1" fill="transparent" fill-opacity="0.2" class="leaflet-clickable" d="M903 765L903 766z"/></g><g><path stroke-linejoin="round" stroke-linecap="round" fill-rule="evenodd" stroke="#333" stroke-opacity="1" stroke-width="1" fill="transparent" fill-opacity="0.2" class="leaflet-clickable" d="M923 734L924 734z"/></g><g><path stroke-linejoin="round" stroke-linecap="round" fill-rule="evenodd" stroke="#333" stroke-opacity="1" stroke-width="1" fill="transparent" fill-opacity="0.2" class="leaflet-clickable" d="M900 767L902 766L901 767z"/></g><g><path stroke-linejoin="round" stroke-linecap="round" fill-rule="evenodd" stroke="#333" stroke-opacity="1" stroke-width="1" fill="transparent" fill-opacity="0.2" class="leaflet-clickable" d="M933 738L934 739z"/></g><g><path stroke-linejoin="round" stroke-linecap="round" fill-rule="evenodd" stroke="#333" stroke-opacity="1" stroke-width="1" fill="transparent" fill-opacity="0.2" class="leaflet-clickable" d="M863 771L862 771z"/></g><g><path stroke-linejoin="round" stroke-linecap="round" fill-rule="evenodd" stroke="#333" stroke-opacity="1" stroke-width="1" fill="transparent" fill-opacity="0.2" class="leaflet-clickable" d="M1123 600L1122 601z"/></g><g><path stroke-linejoin="round" stroke-linecap="round" fill-rule="evenodd" stroke="#333" stroke-opacity="1" stroke-width="1" fill="transparent" fill-opacity="0.2" class="leaflet-clickable" d="M1086 599L1087 600z"/></g><g><path stroke-linejoin="round" stroke-linecap="round" fill-rule="evenodd" stroke="#333" stroke-opacity="1" stroke-width="1" fill="transparent" fill-opacity="0.2" class="leaflet-clickable" d="M1120 576L1119 576z"/></g><g><path stroke-linejoin="round" stroke-linecap="round" fill-rule="evenodd" stroke="#999" stroke-opacity="1" stroke-width="1" stroke-dasharray="1,6" fill="transparent" fill-opacity="0.2" class="leaflet-clickable" d="M977 596L971 595L967 599L970 603L970 609L969 607L968 609L964 609L965 608L961 608L959 605L957 606L960 603L961 604L960 598L958 597L954 599L951 594L947 592L946 593L944 590L948 584L947 580L952 578L955 573L960 575L966 574L969 576L973 584L979 581L983 583L982 589L979 593z"/></g><g><path stroke-linejoin="round" stroke-linecap="round" fill-rule="evenodd" stroke="#999" stroke-opacity="1" stroke-width="1" stroke-dasharray="1,6" fill="transparent" fill-opacity="0.2" class="leaflet-clickable" d="M977 596L982 589L983 583L979 581L973 584L967 574L960 575L960 573L964 569L965 565L971 560L969 556L979 552L981 560L989 564L990 566L999 568L1001 571L1005 573L1006 579L1016 578L1017 580L1013 589L1017 604L1014 608L1008 611L1001 612L997 605L990 602L984 602L978 599z"/></g><g><path stroke-linejoin="round" stroke-linecap="round" fill-rule="evenodd" stroke="#999" stroke-opacity="1" stroke-width="1" stroke-dasharray="1,6" fill="transparent" fill-opacity="0.2" class="leaflet-clickable" d="M971 435L971 432L974 431L974 429L981 429L988 433L990 433L994 429L1002 429L1005 430L1004 431L1006 434L1005 438L999 441L1001 445L1003 447L1005 444L1011 441L1017 446L1014 449L1014 456L1012 458L1012 465L1015 465L1012 469L1008 471L1010 473L1010 478L1013 481L1015 481L1015 487L1020 487L1022 492L1023 491L1023 495L1027 498L1024 502L1018 505L1017 502L1013 502L1010 516L1012 522L1004 530L1005 534L998 540L999 545L996 548L1013 570L1016 578L1007 579L1005 573L1001 571L999 568L990 566L989 564L980 559L980 546L979 540L976 536L977 532L969 524L972 521L972 519L968 513L968 508L966 505L969 504L970 501L974 498L975 496L973 493L975 491L975 487L978 481L973 466L975 466L978 456L974 451L971 452L969 449L971 436z"/></g><g><path stroke-linejoin="round" stroke-linecap="round" fill-rule="evenodd" stroke="#999" stroke-opacity="1" stroke-width="1" stroke-dasharray="1,6" fill="transparent" fill-opacity="0.2" class="leaflet-clickable" d="M1087 517L1078 516L1074 508L1069 507L1067 503L1064 506L1063 510L1055 509L1049 512L1049 506L1046 507L1045 502L1033 497L1024 497L1020 487L1025 482L1028 483L1033 476L1040 474L1041 472L1047 472L1046 468L1048 464L1055 462L1065 463L1068 462L1070 459L1073 461L1072 463L1078 461L1080 459L1080 455L1082 454L1095 453L1098 455L1098 457L1106 460L1106 466L1110 468L1115 466L1118 468L1118 470L1122 473L1122 484L1115 489L1110 490L1111 499L1118 502L1118 504L1105 511L1101 510L1095 513L1088 513L1087 515z"/></g><g><path stroke-linejoin="round" stroke-linecap="round" fill-rule="evenodd" stroke="#999" stroke-opacity="1" stroke-width="1" stroke-dasharray="1,6" fill="transparent" fill-opacity="0.2" class="leaflet-clickable" d="M1129 477L1126 482L1125 479L1127 479L1127 477L1130 475L1129 476z"/></g><g><path stroke-linejoin="round" stroke-linecap="round" fill-rule="evenodd" stroke="#999" stroke-opacity="1" stroke-width="1" stroke-dasharray="1,6" fill="transparent" fill-opacity="0.2" class="leaflet-clickable" d="M1121 470L1121 472z"/></g><g><path stroke-linejoin="round" stroke-linecap="round" fill-rule="evenodd" stroke="#999" stroke-opacity="1" stroke-width="1" stroke-dasharray="1,6" fill="transparent" fill-opacity="0.2" class="leaflet-clickable" d="M1108 464L1108 465z"/></g><g><path stroke-linejoin="round" stroke-linecap="round" fill-rule="evenodd" stroke="#999" stroke-opacity="1" stroke-width="1" stroke-dasharray="1,6" fill="transparent" fill-opacity="0.2" class="leaflet-clickable" d="M1123 473L1122 476L1122 474z"/></g><g><path stroke-linejoin="round" stroke-linecap="round" fill-rule="evenodd" stroke="#999" stroke-opacity="1" stroke-width="1" stroke-dasharray="1,6" fill="transparent" fill-opacity="0.2" class="leaflet-clickable" d="M1115 510L1114 510z"/></g><g><path stroke-linejoin="round" stroke-linecap="round" fill-rule="evenodd" stroke="#999" stroke-opacity="1" stroke-width="1" stroke-dasharray="1,6" fill="transparent" fill-opacity="0.2" class="leaflet-clickable" d="M1087 517L1097 527L1106 531L1108 533L1108 539L1113 542L1119 540L1121 534L1125 533L1127 528L1129 527L1134 527L1137 531L1131 542L1130 551L1124 552L1123 557L1125 562L1130 563L1130 567L1134 565L1138 565L1140 567L1133 574L1121 577L1122 575L1106 569L1098 578L1098 581L1101 583L1103 588L1107 587L1111 592L1115 590L1122 591L1125 597L1124 599L1113 602L1109 600L1103 602L1082 595L1072 600L1069 600L1071 606L1068 609L1060 602L1050 608L1037 612L1036 619L1034 622L1032 622L1030 615L1018 612L1019 604L1017 603L1013 590L1013 587L1017 580L1015 573L996 549L999 545L998 540L1005 534L1004 530L1012 523L1010 516L1013 502L1021 504L1027 498L1033 497L1045 502L1046 507L1049 506L1049 512L1051 512L1054 509L1063 510L1066 503L1069 507L1074 508L1078 516z"/></g><g><path stroke-linejoin="round" stroke-linecap="round" fill-rule="evenodd" stroke="#999" stroke-opacity="1" stroke-width="1" stroke-dasharray="1,6" fill="transparent" fill-opacity="0.2" class="leaflet-clickable" d="M1142 565L1141 566L1142 564z"/></g><g><path stroke-linejoin="round" stroke-linecap="round" fill-rule="evenodd" stroke="#999" stroke-opacity="1" stroke-width="1" stroke-dasharray="1,6" fill="transparent" fill-opacity="0.2" class="leaflet-clickable" d="M1138 538L1137 535L1139 535L1141 538L1138 539z"/></g><g><path stroke-linejoin="round" stroke-linecap="round" fill-rule="evenodd" stroke="#999" stroke-opacity="1" stroke-width="1" stroke-dasharray="1,6" fill="transparent" fill-opacity="0.2" class="leaflet-clickable" d="M1108 531L1107 530L1109 530L1109 532z"/></g><g><path stroke-linejoin="round" stroke-linecap="round" fill-rule="evenodd" stroke="#999" stroke-opacity="1" stroke-width="1" stroke-dasharray="1,6" fill="transparent" fill-opacity="0.2" class="leaflet-clickable" d="M1113 590L1112 589L1114 590z"/></g><g><path stroke-linejoin="round" stroke-linecap="round" fill-rule="evenodd" stroke="#999" stroke-opacity="1" stroke-width="1" stroke-dasharray="1,6" fill="transparent" fill-opacity="0.2" class="leaflet-clickable" d="M1044 619L1043 618L1045 616L1047 618L1046 619z"/></g><g><path stroke-linejoin="round" stroke-linecap="round" fill-rule="evenodd" stroke="#999" stroke-opacity="1" stroke-width="1" stroke-dasharray="1,6" fill="transparent" fill-opacity="0.2" class="leaflet-clickable" d="M1051 610L1052 609z"/></g><g><path stroke-linejoin="round" stroke-linecap="round" fill-rule="evenodd" stroke="#999" stroke-opacity="1" stroke-width="1" stroke-dasharray="1,6" fill="transparent" fill-opacity="0.2" class="leaflet-clickable" d="M1143 521L1142 520L1145 517L1145 520L1143 521z"/></g><g><path stroke-linejoin="round" stroke-linecap="round" fill-rule="evenodd" stroke="#999" stroke-opacity="1" stroke-width="1" stroke-dasharray="1,6" fill="transparent" fill-opacity="0.2" class="leaflet-clickable" d="M1069 614L1069 615z"/></g><g><path stroke-linejoin="round" stroke-linecap="round" fill-rule="evenodd" stroke="#999" stroke-opacity="1" stroke-width="1" stroke-dasharray="1,6" fill="transparent" fill-opacity="0.2" class="leaflet-clickable" d="M1066 608L1065 608z"/></g><g><path stroke-linejoin="round" stroke-linecap="round" fill-rule="evenodd" stroke="#999" stroke-opacity="1" stroke-width="1" stroke-dasharray="1,6" fill="transparent" fill-opacity="0.2" class="leaflet-clickable" d="M1067 617L1066 617z"/></g><g><path stroke-linejoin="round" stroke-linecap="round" fill-rule="evenodd" stroke="#999" stroke-opacity="1" stroke-width="1" stroke-dasharray="1,6" fill="transparent" fill-opacity="0.2" class="leaflet-clickable" d="M1045 619L1047 619L1045 620z"/></g><g><path stroke-linejoin="round" stroke-linecap="round" fill-rule="evenodd" stroke="#999" stroke-opacity="1" stroke-width="1" stroke-dasharray="1,6" fill="transparent" fill-opacity="0.2" class="leaflet-clickable" d="M1134 539L1135 539z"/></g><g><path stroke-linejoin="round" stroke-linecap="round" fill-rule="evenodd" stroke="#999" stroke-opacity="1" stroke-width="1" stroke-dasharray="1,6" fill="transparent" fill-opacity="0.2" class="leaflet-clickable" d="M1136 519L1137 519z"/></g><g><path stroke-linejoin="round" stroke-linecap="round" fill-rule="evenodd" stroke="#999" stroke-opacity="1" stroke-width="1" stroke-dasharray="1,6" fill="transparent" fill-opacity="0.2" class="leaflet-clickable" d="M1086 599L1087 600z"/></g><g><path stroke-linejoin="round" stroke-linecap="round" fill-rule="evenodd" stroke="#999" stroke-opacity="1" stroke-width="1" stroke-dasharray="1,6" fill="transparent" fill-opacity="0.2" class="leaflet-clickable" d="M1123 600L1122 601z"/></g><g><path stroke-linejoin="round" stroke-linecap="round" fill-rule="evenodd" stroke="#999" stroke-opacity="1" stroke-width="1" stroke-dasharray="1,6" fill="transparent" fill-opacity="0.2" class="leaflet-clickable" d="M1120 576L1119 576z"/></g><g><path stroke-linejoin="round" stroke-linecap="round" fill-rule="evenodd" stroke="#099" stroke-opacity="1" stroke-width="1" fill="#099" fill-opacity="0.2" class="leaflet-clickable" d="M821 446L819 455L817 456L817 462L819 462L826 468L822 473L821 478L823 478L829 486L842 486L844 490L847 490L847 492L849 492L851 498L847 503L846 510L847 513L856 521L861 519L865 522L871 522L870 525L865 529L865 533L860 539L865 546L862 548L863 549L860 553L855 550L853 551L839 548L835 550L830 546L824 549L817 547L818 552L816 556L818 558L816 560L814 569L815 571L812 577L813 582L817 586L817 589L820 593L814 593L809 595L805 601L795 605L792 609L790 606L790 601L787 600L785 604L778 596L777 591L770 589L768 594L762 591L760 592L769 599L768 601L762 600L760 604L763 607L755 610L754 612L748 603L744 602L740 604L736 599L732 600L732 603L730 603L724 598L725 596L721 592L717 601L710 601L703 598L700 599L698 601L700 604L698 606L699 607L695 611L692 610L690 604L687 608L683 610L680 608L681 607L679 602L677 603L668 598L665 598L656 607L648 611L639 609L631 604L627 604L624 600L623 591L627 589L630 581L622 580L620 578L619 571L624 565L638 558L639 551L644 550L649 555L652 554L654 549L659 549L661 544L669 539L669 536L664 533L666 530L663 520L662 519L658 523L654 519L646 515L644 511L644 500L635 496L633 497L629 493L628 495L625 491L626 486L611 480L608 474L602 474L602 465L605 462L607 462L607 460L609 460L610 457L619 462L623 461L626 451L619 446L620 436L618 433L620 430L625 430L626 428L636 423L640 415L648 410L646 407L649 406L651 402L651 393L648 391L653 382L659 386L659 389L665 392L666 389L672 390L676 389L677 387L684 389L692 383L699 392L699 396L701 395L705 397L707 397L709 391L713 395L716 394L721 397L724 395L728 395L732 391L738 395L738 397L740 396L741 392L749 388L749 393L765 395L765 408L766 410L771 409L773 412L777 412L777 420L781 428L786 432L784 434L789 437L793 432L797 434L799 443L803 441L802 439L805 436L815 435L821 439L821 445z"/></g><g><path stroke-linejoin="round" stroke-linecap="round" fill-rule="evenodd" stroke="#999" stroke-opacity="1" stroke-width="1" stroke-dasharray="1,6" fill="transparent" fill-opacity="0.2" class="leaflet-clickable" d="M768 326L769 330L776 334L775 338L780 341L789 335L793 337L797 335L799 336L803 339L806 345L805 351L808 352L805 355L806 359L812 361L814 364L819 366L829 366L831 369L844 369L851 373L855 382L861 386L863 391L868 387L872 387L869 380L873 376L872 375L875 375L877 371L886 370L894 365L899 366L895 369L895 375L901 371L911 373L912 367L917 369L917 374L920 374L922 371L925 370L931 371L935 380L940 380L941 388L945 389L943 395L946 395L956 406L954 410L955 417L950 423L951 425L953 425L956 419L959 421L958 425L956 428L954 426L948 430L944 430L940 435L930 427L927 429L925 428L923 432L919 434L913 434L909 440L903 443L903 445L897 449L888 449L887 446L880 447L875 442L873 446L870 444L870 448L867 451L867 455L865 456L861 452L860 454L858 452L857 453L859 454L858 456L861 459L859 463L857 464L850 461L850 459L846 458L844 459L845 460L837 464L833 463L826 457L826 445L821 446L821 440L818 436L805 436L802 438L803 441L799 443L797 434L793 432L789 437L784 434L786 432L781 428L777 421L776 411L774 412L771 409L765 409L764 394L749 393L749 388L747 388L745 391L741 392L739 397L733 391L728 395L724 395L721 397L716 394L713 395L709 391L707 397L705 397L702 395L699 396L699 392L692 383L684 389L677 387L676 389L672 390L667 389L665 392L659 389L659 386L655 384L653 381L654 380L651 373L652 369L656 366L656 362L661 357L660 350L662 343L667 343L666 345L670 347L675 346L678 351L679 349L688 358L690 357L687 352L687 345L692 346L696 342L698 342L705 352L707 354L710 354L714 351L725 350L731 348L732 346L734 347L739 345L742 339L748 337L750 337L757 343L758 342L756 340L756 337L768 328z"/></g><g><path stroke-linejoin="round" stroke-linecap="round" fill-rule="evenodd" stroke="#999" stroke-opacity="1" stroke-width="1" stroke-dasharray="1,6" fill="transparent" fill-opacity="0.2" class="leaflet-clickable" d="M768 326L773 323L778 312L778 298L774 297L771 300L765 302L761 301L760 303L758 298L752 291L748 292L746 289L747 287L745 286L742 288L741 285L745 281L745 279L749 280L749 278L752 276L757 276L759 274L764 274L766 272L769 259L768 258L764 262L762 258L763 256L759 255L755 247L755 244L757 245L759 240L766 240L768 231L766 229L768 222L773 215L774 219L776 216L776 214L772 210L770 210L769 205L776 202L776 204L779 206L782 204L786 209L793 202L795 202L794 198L791 196L792 194L796 194L802 191L803 192L806 189L817 188L820 184L829 188L829 194L835 194L840 188L842 188L848 194L855 188L861 188L863 186L860 181L864 175L866 175L870 179L874 175L876 176L879 182L884 182L886 181L889 173L894 174L899 190L906 187L913 192L911 196L914 197L917 205L912 210L909 209L907 212L906 218L903 222L904 225L906 224L908 228L913 230L916 242L919 245L920 256L926 261L929 260L934 264L938 265L943 273L949 278L954 285L960 284L962 286L957 291L963 294L964 296L962 302L950 317L949 324L942 329L942 332L934 340L934 344L932 346L933 351L936 353L933 356L938 357L937 362L932 367L931 371L925 370L922 371L920 374L917 374L917 369L913 367L911 368L911 373L902 371L898 372L896 375L895 369L899 366L894 365L886 370L878 371L875 375L872 374L873 376L869 379L872 386L863 391L861 386L855 382L851 373L848 371L841 368L832 369L829 366L819 366L814 364L812 361L806 359L805 355L808 352L805 351L806 345L803 339L799 336L797 335L793 337L789 335L780 341L775 338L776 334L769 330L768 328z"/></g><g><path stroke-linejoin="round" stroke-linecap="round" fill-rule="evenodd" stroke="#999" stroke-opacity="1" stroke-width="1" stroke-dasharray="1,6" fill="transparent" fill-opacity="0.2" class="leaflet-clickable" d="M914 745L914 740L916 742L919 741L923 748L929 749L928 751L932 759L936 759L934 767L938 774L937 776L935 775L935 780L931 783L930 786L924 789L920 789L919 787L923 786L921 783L917 783L911 780L899 780L890 787L885 797L883 798L873 794L866 787L867 785L869 785L869 782L877 781L877 777L873 767L871 766L871 762L878 756L880 756L892 765L903 767L906 763L906 761L903 759L909 756L907 748L910 747z"/></g><g><path stroke-linejoin="round" stroke-linecap="round" fill-rule="evenodd" stroke="#999" stroke-opacity="1" stroke-width="1" stroke-dasharray="1,6" fill="transparent" fill-opacity="0.2" class="leaflet-clickable" d="M847 790L842 788L844 786L844 782L845 780L847 780L850 772L857 770L861 774L863 774L861 784L858 783L855 785L855 787L852 787L848 790z"/></g><g><path stroke-linejoin="round" stroke-linecap="round" fill-rule="evenodd" stroke="#999" stroke-opacity="1" stroke-width="1" stroke-dasharray="1,6" fill="transparent" fill-opacity="0.2" class="leaflet-clickable" d="M822 799L825 800L823 801L821 799z"/></g><g><path stroke-linejoin="round" stroke-linecap="round" fill-rule="evenodd" stroke="#999" stroke-opacity="1" stroke-width="1" stroke-dasharray="1,6" fill="transparent" fill-opacity="0.2" class="leaflet-clickable" d="M824 793L825 796L828 796L828 798L826 798L823 795z"/></g><g><path stroke-linejoin="round" stroke-linecap="round" fill-rule="evenodd" stroke="#999" stroke-opacity="1" stroke-width="1" stroke-dasharray="1,6" fill="transparent" fill-opacity="0.2" class="leaflet-clickable" d="M931 787L932 787z"/></g><g><path stroke-linejoin="round" stroke-linecap="round" fill-rule="evenodd" stroke="#999" stroke-opacity="1" stroke-width="1" stroke-dasharray="1,6" fill="transparent" fill-opacity="0.2" class="leaflet-clickable" d="M835 794L836 794z"/></g><g><path stroke-linejoin="round" stroke-linecap="round" fill-rule="evenodd" stroke="#999" stroke-opacity="1" stroke-width="1" stroke-dasharray="1,6" fill="transparent" fill-opacity="0.2" class="leaflet-clickable" d="M819 801L818 801z"/></g><g><path stroke-linejoin="round" stroke-linecap="round" fill-rule="evenodd" stroke="#999" stroke-opacity="1" stroke-width="1" stroke-dasharray="1,6" fill="transparent" fill-opacity="0.2" class="leaflet-clickable" d="M923 743L925 742L924 743z"/></g><g><path stroke-linejoin="round" stroke-linecap="round" fill-rule="evenodd" stroke="#999" stroke-opacity="1" stroke-width="1" stroke-dasharray="1,6" fill="transparent" fill-opacity="0.2" class="leaflet-clickable" d="M835 780L836 781z"/></g><g><path stroke-linejoin="round" stroke-linecap="round" fill-rule="evenodd" stroke="#999" stroke-opacity="1" stroke-width="1" stroke-dasharray="1,6" fill="transparent" fill-opacity="0.2" class="leaflet-clickable" d="M848 791L849 791z"/></g><g><path stroke-linejoin="round" stroke-linecap="round" fill-rule="evenodd" stroke="#999" stroke-opacity="1" stroke-width="1" stroke-dasharray="1,6" fill="transparent" fill-opacity="0.2" class="leaflet-clickable" d="M923 734L924 734z"/></g><g><path stroke-linejoin="round" stroke-linecap="round" fill-rule="evenodd" stroke="#999" stroke-opacity="1" stroke-width="1" stroke-dasharray="1,6" fill="transparent" fill-opacity="0.2" class="leaflet-clickable" d="M900 767L902 766L901 767z"/></g><g><path stroke-linejoin="round" stroke-linecap="round" fill-rule="evenodd" stroke="#999" stroke-opacity="1" stroke-width="1" stroke-dasharray="1,6" fill="transparent" fill-opacity="0.2" class="leaflet-clickable" d="M903 765L903 766z"/></g><g><path stroke-linejoin="round" stroke-linecap="round" fill-rule="evenodd" stroke="#999" stroke-opacity="1" stroke-width="1" stroke-dasharray="1,6" fill="transparent" fill-opacity="0.2" class="leaflet-clickable" d="M933 738L934 739z"/></g><g><path stroke-linejoin="round" stroke-linecap="round" fill-rule="evenodd" stroke="#999" stroke-opacity="1" stroke-width="1" stroke-dasharray="1,6" fill="transparent" fill-opacity="0.2" class="leaflet-clickable" d="M863 771L862 771z"/></g><g><path stroke-linejoin="round" stroke-linecap="round" fill-rule="evenodd" stroke="#999" stroke-opacity="1" stroke-width="1" stroke-dasharray="1,6" fill="transparent" fill-opacity="0.2" class="leaflet-clickable" d="M1005 630L1009 633L1014 631L1022 632L1024 630L1024 625L1030 624L1030 633L1033 638L1050 641L1047 653L1042 657L1039 663L1035 661L1033 663L1036 664L1032 671L1034 671L1032 674L1030 674L1030 676L1028 675L1028 678L1024 680L1020 685L1013 686L1010 684L1005 677L1005 670L1001 663L996 663L985 669L976 660L978 653L983 652L986 649L993 648L992 638L994 638L995 640L1003 634z"/></g><g><path stroke-linejoin="round" stroke-linecap="round" fill-rule="evenodd" stroke="#999" stroke-opacity="1" stroke-width="1" stroke-dasharray="1,6" fill="transparent" fill-opacity="0.2" class="leaflet-clickable" d="M1020 684L1022 684L1021 685z"/></g><g><path stroke-linejoin="round" stroke-linecap="round" fill-rule="evenodd" stroke="#999" stroke-opacity="1" stroke-width="1" stroke-dasharray="1,6" fill="transparent" fill-opacity="0.2" class="leaflet-clickable" d="M944 590L946 593L947 592L952 595L954 599L957 597L960 598L961 600L959 603L961 603L959 603L957 606L959 605L965 608L964 609L968 609L968 607L969 609L970 603L968 599L971 595L977 595L978 599L984 602L990 602L997 605L1001 612L999 613L1000 627L1005 630L1002 636L995 640L994 638L992 638L993 647L978 653L976 660L985 669L987 669L995 663L1002 664L1005 670L1005 677L1007 679L1002 683L1002 697L1004 702L1006 702L1008 698L1012 699L1013 697L1014 700L1011 718L1009 721L1005 721L1002 724L1003 729L996 731L991 737L989 737L987 742L975 748L967 746L970 743L969 736L962 731L963 727L967 724L952 708L938 705L925 705L923 693L927 687L927 667L925 666L926 664L922 658L922 649L918 647L921 643L921 640L914 640L913 638L918 635L920 631L922 632L924 630L923 611L930 613L941 607L938 600L940 591L943 589z"/></g><g><path stroke-linejoin="round" stroke-linecap="round" fill-rule="evenodd" stroke="#999" stroke-opacity="1" stroke-width="1" stroke-dasharray="1,6" fill="transparent" fill-opacity="0.2" class="leaflet-clickable" d="M1004 698L1003 698z"/></g><g><path stroke-linejoin="round" stroke-linecap="round" fill-rule="evenodd" stroke="#999" stroke-opacity="1" stroke-width="1" stroke-dasharray="1,6" fill="transparent" fill-opacity="0.2" class="leaflet-clickable" d="M1018 621L1019 621z"/></g><g><path stroke-linejoin="round" stroke-linecap="round" fill-rule="evenodd" stroke="#999" stroke-opacity="1" stroke-width="1" fill="transparent" fill-opacity="0.2" class="leaflet-clickable" d="M820 593L820 591L817 589L813 582L812 578L815 572L814 569L818 558L816 556L818 553L817 548L823 549L829 546L834 548L835 550L839 548L853 551L855 550L860 553L863 549L862 548L865 547L860 540L864 535L865 530L871 523L870 521L862 522L861 519L856 521L852 516L847 513L847 503L851 498L849 492L847 492L848 490L845 490L842 486L829 486L828 483L823 478L821 478L822 473L826 469L819 462L817 462L817 457L819 455L821 446L826 445L826 456L833 463L836 464L845 460L845 458L850 459L850 461L857 464L861 459L859 456L857 456L859 455L857 453L858 452L860 454L861 452L865 456L867 456L867 451L870 448L870 444L873 446L875 442L880 447L887 446L888 449L897 449L899 447L902 447L903 443L910 439L913 434L919 434L923 432L925 428L927 429L929 427L935 430L940 435L944 430L947 430L954 426L956 428L957 427L958 433L962 435L971 435L969 448L971 452L975 452L978 456L976 464L975 466L973 466L978 481L973 493L975 496L969 504L966 505L968 508L968 513L972 519L972 521L969 523L971 528L977 531L976 535L979 539L980 550L979 552L969 556L971 559L960 575L955 573L953 578L947 579L948 584L944 590L940 590L939 594L938 599L941 607L930 613L923 611L924 630L922 632L920 631L918 635L914 638L914 640L921 640L918 646L923 654L922 658L926 664L925 666L927 669L927 687L923 693L925 705L919 710L910 714L910 720L906 721L904 718L900 721L893 721L890 715L888 714L888 709L884 712L883 709L889 702L890 699L888 694L891 691L892 685L880 673L886 661L884 658L881 658L879 651L885 650L887 646L886 643L889 643L888 639L887 638L885 641L882 639L882 631L877 629L873 620L867 618L862 619L860 621L857 619L856 620L855 618L853 618L852 621L848 620L845 615L846 610L842 609L841 607L835 604L834 602L837 598L834 594L829 594L827 592L821 593z" stroke-dasharray="1,6"/></g><g><path stroke-linejoin="round" stroke-linecap="round" fill-rule="evenodd" stroke="#999" stroke-opacity="1" stroke-width="1" fill="transparent" fill-opacity="0.2" class="leaflet-clickable" d="M930 726L931 726z" stroke-dasharray="1,6"/></g></svg>